<?xml version="1.0" encoding="UTF-8" standalone="no"?>
<svg
   xmlns:dc="http://purl.org/dc/elements/1.1/"
   xmlns:cc="http://creativecommons.org/ns#"
   xmlns:rdf="http://www.w3.org/1999/02/22-rdf-syntax-ns#"
   xmlns:svg="http://www.w3.org/2000/svg"
   xmlns="http://www.w3.org/2000/svg"
   xmlns:sodipodi="http://sodipodi.sourceforge.net/DTD/sodipodi-0.dtd"
   xmlns:inkscape="http://www.inkscape.org/namespaces/inkscape"
   version="1.0"
   viewBox="0 0 21000 29700"
   preserveAspectRatio="xMidYMid"
   id="svg2419"
   sodipodi:version="0.32"
   inkscape:version="0.46"
   width="32"
   height="32"
   sodipodi:docname="cloud.svg"
   inkscape:output_extension="org.inkscape.output.svg.inkscape"
   style="fill-rule:evenodd">
  <metadata
     id="metadata2446">
    <rdf:RDF>
      <cc:Work
         rdf:about="">
        <dc:format>image/svg+xml</dc:format>
        <dc:type
           rdf:resource="http://purl.org/dc/dcmitype/StillImage" />
      </cc:Work>
    </rdf:RDF>
  </metadata>
  <defs
     id="defs2444">
    <inkscape:perspective
       sodipodi:type="inkscape:persp3d"
       inkscape:vp_x="0 : 526.18109 : 1"
       inkscape:vp_y="0 : 1000 : 0"
       inkscape:vp_z="744.09448 : 526.18109 : 1"
       inkscape:persp3d-origin="372.04724 : 350.78739 : 1"
       id="perspective2448" />
    <desc
       id="desc2425">Slide</desc>
    <desc
       id="desc2429">Drawing</desc>
  </defs>
  <sodipodi:namedview
     inkscape:window-height="944"
     inkscape:window-width="1279"
     inkscape:pageshadow="2"
     inkscape:pageopacity="0.0"
     guidetolerance="10.0"
     gridtolerance="10.0"
     objecttolerance="10.0"
     borderopacity="1.0"
     bordercolor="#666666"
     pagecolor="#ffffff"
     id="base"
     showgrid="false"
     inkscape:zoom="1"
     inkscape:cx="16"
     inkscape:cy="16"
     inkscape:window-x="0"
     inkscape:window-y="27"
     inkscape:current-layer="svg2419" />
  <g
     visibility="visible"
     id="Default"
     style="visibility:visible">
    <desc
       id="desc2422">Master slide</desc>
  </g>
  <g
     id="g3340">
    <g
       style="stroke-width:196.52071501;stroke-miterlimit:4;stroke-dasharray:none"
       transform="matrix(4.1619539,0,0,4.1619539,-27419.112,-13321.651)"
       id="g3324">
      <g
         id="g2433"
         style="fill:#99ccff;stroke:none;stroke-width:196.52071501;stroke-miterlimit:4;stroke-dasharray:none;visibility:visible"
         transform="translate(-503.38983,-1636.0169)">
        <path
           id="path2435"
           d="M 11890,8883 L 11930,8986 L 11971,9089 L 12012,9191 L 12012,9337 L 11930,9645 L 11767,9944 L 11523,10150 L 11204,10304 L 10837,10355 L 10634,10304 L 10430,10304 L 10267,10252 L 10104,10150 L 10023,10304 L 9901,10406 L 9785,10458 L 9622,10500 L 9500,10458 L 9337,10406 L 9256,10304 L 9174,10150 L 9052,10201 L 8889,10252 L 8767,10252 L 8604,10304 L 8285,10252 L 8000,10150 L 7755,9996 L 7592,9799 L 7470,9542 L 7430,9542 L 7430,9542 L 7430,9542 L 7389,9542 L 7110,9491 L 6866,9337 L 6662,9191 L 6540,8935 L 6500,8635 L 6540,8327 L 6703,8070 L 6907,7873 L 7185,7719 L 7185,7719 L 7185,7719 L 7226,7719 L 7144,7617 L 7070,7514 L 7029,7369 L 7029,7215 L 7070,6855 L 7267,6607 L 7511,6402 L 7837,6299 L 8040,6350 L 8203,6402 L 8366,6504 L 8489,6658 L 8522,6658 L 8522,6658 L 8563,6658 L 8563,6658 L 8563,6658 L 8604,6658 L 8604,6658 L 8685,6504 L 8808,6453 L 8930,6402 L 9093,6350 L 9174,6350 L 9256,6402 L 9337,6453 L 9419,6453 L 9459,6453 L 9459,6453 L 9459,6453 L 9459,6402 L 9663,6248 L 9867,6102 L 10104,6051 L 10389,6000 L 10715,6051 L 11041,6205 L 11245,6402 L 11401,6658 L 11441,6958 L 11441,7009 L 11441,7009 L 11441,7061 L 11441,7112 L 11482,7112 L 11523,7112 L 11564,7112 L 11564,7112 L 11890,7163 L 12134,7266 L 12338,7463 L 12460,7719 L 12500,8028 L 12460,8327 L 12338,8532 L 12134,8729 L 11890,8883 z"
           style="stroke-width:196.52071501;stroke-miterlimit:4;stroke-dasharray:none" />
      </g>
    </g>
    <g
       transform="matrix(4.1619539,0,0,4.1619539,-29514.197,-20130.678)"
       style="fill:none;stroke:#000000;stroke-width:196.52071501;stroke-miterlimit:4;stroke-dasharray:none;visibility:visible"
       id="g2437">
      <path
         style="fill:none;stroke-width:196.52071501;stroke-miterlimit:4;stroke-dasharray:none"
         d="M 11890,8883 L 11930,8986 L 11971,9089 L 12012,9191 L 12012,9337 L 11930,9645 L 11767,9944 L 11523,10150 L 11204,10304 L 10837,10355 L 10634,10304 L 10430,10304 L 10267,10252 L 10104,10150 L 10023,10304 L 9901,10406 L 9785,10458 L 9622,10500 L 9500,10458 L 9337,10406 L 9256,10304 L 9174,10150 L 9052,10201 L 8889,10252 L 8767,10252 L 8604,10304 L 8285,10252 L 8000,10150 L 7755,9996 L 7592,9799 L 7470,9542 L 7430,9542 L 7389,9542 L 7110,9491 L 6866,9337 L 6662,9191 L 6540,8935 L 6500,8635 L 6540,8327 L 6703,8070 L 6907,7873 L 7185,7719 L 7226,7719 L 7144,7617 L 7070,7514 L 7029,7369 L 7029,7215 L 7070,6855 L 7267,6607 L 7511,6402 L 7837,6299 L 8040,6350 L 8203,6402 L 8366,6504 L 8489,6658 L 8522,6658 L 8563,6658 L 8604,6658 L 8685,6504 L 8808,6453 L 8930,6402 L 9093,6350 L 9174,6350 L 9256,6402 L 9337,6453 L 9419,6453 L 9459,6453 L 9459,6402 L 9663,6248 L 9867,6102 L 10104,6051 L 10389,6000 L 10715,6051 L 11041,6205 L 11245,6402 L 11401,6658 L 11441,6958 L 11441,7009 L 11441,7061 L 11441,7112 L 11482,7112 L 11523,7112 L 11564,7112 L 11890,7163 L 12134,7266 L 12338,7463 L 12460,7719 L 12500,8028 L 12460,8327 L 12338,8532 L 12134,8729 L 11890,8883"
         id="path2439" />
    </g>
  </g>
  <g
     style="stroke-width:29.21000099;stroke-miterlimit:4;stroke-dasharray:none;visibility:visible"
     id="g2441"
     transform="translate(-503.38983,-1636.0169)" />
</svg>
